<?xml version="1.0" standalone="no"?><!DOCTYPE svg PUBLIC "-//W3C//DTD SVG 1.1//EN" "http://www.w3.org/Graphics/SVG/1.1/DTD/svg11.dtd"><svg t="1570289566426" class="icon" viewBox="0 0 1024 1024" version="1.1" xmlns="http://www.w3.org/2000/svg" p-id="3650" xmlns:xlink="http://www.w3.org/1999/xlink" width="200" height="200"><defs><style type="text/css"></style></defs><path d="M512 1024C230.4 1024 0 793.6 0 512S230.4 0 512 0s512 230.4 512 512-230.4 512-512 512z" fill="#F7BE15" p-id="3651"></path><path d="M1023.456 533.424L647.768 327.712s-10.896-7.088-22.112 3.04c-4.848 4.376-3.064 10.12 2.04 26.32-8.16 19.232-11.544 43.832-22.152 42.52-18.08-2.232-82.352-47.768-100.712-67-27.576-28.888-39.304 2.208-52.568 31.568-13.256 29.36 1.024 86.048 1.024 86.048l-218.28-117.432-60.176 106.296 325.2 584.624c3.992 0.088 7.952 0.304 11.968 0.304 274.416 0 500.112-218.816 511.456-490.576z" fill="#DB8E1F" p-id="3652"></path><path d="M715.704 494.696c7.672-13.808 11.632-28.816 12.488-44.208-40.056-11.872-84.952-30.784-130.424-56.048s-85.248-53.4-116.488-81.136c-12.616 8.848-23.264 20.144-30.936 33.952-17.584 31.64-16.264 69.464-0.192 104.08l-3.704-2.056-77.84 140.112 184.696 102.616 77.84-140.112-3.704-2.056c37.872-4.64 70.688-23.512 88.264-55.144" fill="#DFDEDE" p-id="3653"></path><path d="M553.296 698.248a6.198 6.198 0 0 1-3.024-0.784l-184.696-102.616a6.226 6.226 0 0 1-2.424-8.48l77.84-140.112c0.032-0.056 0.056-0.12 0.104-0.184-14.032-35.36-12.76-72.064 3.792-101.832 7.864-14.144 18.896-26.28 32.8-36.032a6.226 6.226 0 0 1 7.728 0.44c31.992 28.4 71.888 56.184 115.368 80.352 43.464 24.136 88.128 43.344 129.168 55.512a6.252 6.252 0 0 1 4.464 6.328c-0.944 16.96-5.4 32.736-13.264 46.88-16.536 29.784-47.032 50.248-84.456 57.032-0.04 0.056-0.072 0.12-0.104 0.168l-77.84 140.112a6.216 6.216 0 0 1-5.456 3.216m-176.208-111.28l173.792 96.56 71.944-129.488a6.25 6.25 0 0 1-1.504-5.392 6.228 6.228 0 0 1 5.36-4.992c37.288-4.576 67.76-23.52 83.576-51.984 6.176-11.128 9.976-23.44 11.32-36.648-40.56-12.48-84.296-31.48-126.84-55.12-42.584-23.656-81.816-50.752-113.8-78.576-10.512 8.112-18.952 17.856-25.144 28.976-15.816 28.472-15.808 64.344 0.024 98.424a6.25 6.25 0 0 1-1.408 7.2c-1.48 1.36-3.488 1.92-5.376 1.568l-71.944 129.472z m338.616-92.272h0.088-0.088z" fill="#474341" p-id="3654"></path><path d="M531.944 682.928c-7.816 14.064-46.464 7.52-86.336-14.624-39.864-22.144-65.84-51.504-58.024-65.576" fill="#AEABAA" p-id="3655"></path><path d="M513.152 696.664c-19.352 0-46.232-9.392-70.568-22.92C404 652.312 370.856 620 382.136 599.696a6.228 6.228 0 0 1 8.472-2.424 6.214 6.214 0 0 1 2.424 8.472c-4.536 8.168 14.872 34.472 55.6 57.096 40.744 22.624 73.32 25.208 77.856 17.056a6.22 6.22 0 0 1 8.472-2.424 6.23 6.23 0 0 1 2.424 8.48c-4.152 7.496-12.896 10.712-24.232 10.712M599.152 398.16a6.14 6.14 0 0 1-3.016-0.792 6.22 6.22 0 0 1-2.424-8.472l21.904-39.432a6.23 6.23 0 0 1 8.48-2.424 6.23 6.23 0 0 1 2.424 8.48l-21.904 39.432a6.256 6.256 0 0 1-5.464 3.208" fill="#474341" p-id="3656"></path><path d="M644.264 345.864a17.056 17.056 0 0 1-23.192 6.624c-8.232-4.576-11.208-14.96-6.624-23.192 4.576-8.232 14.96-11.208 23.192-6.624 8.232 4.568 11.192 14.952 6.624 23.192" fill="#3AB394" p-id="3657"></path><path d="M629.32 360.872c-3.824 0-7.704-0.944-11.272-2.936-11.224-6.24-15.28-20.448-9.048-31.672 6.232-11.24 20.464-15.288 31.672-9.056 5.44 3.016 9.376 7.976 11.088 13.96s0.992 12.272-2.04 17.712a23.308 23.308 0 0 1-20.4 11.992m0.056-34.112a10.836 10.836 0 0 0-9.48 5.56 10.852 10.852 0 0 0 4.208 14.72 10.818 10.818 0 0 0 14.704-4.208c2.904-5.216 1.008-11.824-4.2-14.72a10.83 10.83 0 0 0-5.232-1.352M638.304 295.944c12.504 4.448 22.656 14.016 27.64 26.352 2.096 5.184 10.616 2.92 8.488-2.336-6.224-15.408-18.104-26.928-33.792-32.504-5.344-1.904-7.648 6.6-2.336 8.488M648.352 275.584c18.16 6.448 32.728 20.264 39.96 38.16 2.096 5.192 10.616 2.92 8.488-2.336-8.48-20.976-24.768-36.728-46.112-44.312-5.344-1.904-7.648 6.6-2.336 8.488M660.184 256.552c22.304 7.928 40.12 24.84 49 46.816 2.088 5.184 10.616 2.92 8.488-2.344-10.12-25.056-29.648-43.904-55.144-52.968-5.352-1.888-7.648 6.616-2.344 8.496" fill="#474341" p-id="3658"></path><path d="M451.528 454.232l178.104 95.6-31.392 59.912-181.92-96.824z" fill="#3AB394" p-id="3659"></path><path d="M578.88 527.264c-0.728 0-1.464-0.184-2.136-0.552l-132.44-73.584a4.42 4.42 0 0 1-1.712-5.992c1.184-2.136 3.864-2.864 5.984-1.712l132.44 73.584a4.41 4.41 0 0 1-2.136 8.256M592.864 613.112c-0.728 0-1.464-0.184-2.136-0.552l-151.976-84.44a4.41 4.41 0 0 1-1.712-5.984c1.184-2.136 3.864-2.864 5.984-1.712l151.976 84.44a4.41 4.41 0 0 1 1.712 5.984 4.392 4.392 0 0 1-3.848 2.264" fill="#474341" p-id="3660"></path><path d="M458.736 537.328a4.408 4.408 0 0 1-3.888-6.472l30.032-56.328a4.414 4.414 0 0 1 5.96-1.816 4.408 4.408 0 0 1 1.816 5.952l-30.032 56.328a4.382 4.382 0 0 1-3.888 2.336M505.976 561.056c-0.728 0-1.464-0.184-2.136-0.552a4.42 4.42 0 0 1-1.712-5.992l29.928-53.864a4.412 4.412 0 0 1 5.984-1.712 4.42 4.42 0 0 1 1.712 5.992l-29.92 53.864a4.432 4.432 0 0 1-3.856 2.264M554.608 586.816c-0.768 0-1.536-0.2-2.248-0.616a4.388 4.388 0 0 1-1.536-6.024l19.664-33.136a4.382 4.382 0 0 1 6.024-1.536 4.388 4.388 0 0 1 1.536 6.024l-19.656 33.136a4.4 4.4 0 0 1-3.784 2.152" fill="#474341" p-id="3661"></path><path d="M852.96 675.848l-216.576-125.336-61.76 112.04 218.336 121.296zM450.232 446.976L233.664 321.64l-61.76 112.04 218.328 121.296z" fill="#FDFBF8" p-id="3662"></path><path d="M324.248 523.4c-0.728 0-1.464-0.184-2.136-0.552L167.56 436.984a4.41 4.41 0 0 1-1.712-5.984l60-108.008c1.184-2.136 3.872-2.864 5.992-1.712a4.42 4.42 0 0 1 1.712 5.992L175.68 431.424l150.704 83.728a4.41 4.41 0 0 1 1.712 5.984 4.41 4.41 0 0 1-3.848 2.264M388.032 558.832c-0.736 0-1.48-0.192-2.136-0.552l-24.36-13.528a4.42 4.42 0 0 1-1.712-5.992c1.184-2.136 3.872-2.864 5.992-1.712l20.504 11.4 55.728-100.312-179.688-99.832a4.416 4.416 0 0 1-1.712-5.992c1.184-2.128 3.872-2.864 5.992-1.712l183.528 101.968a4.41 4.41 0 0 1 1.712 5.984l-60 108.008c-0.568 1.016-1.52 1.776-2.64 2.088-0.392 0.128-0.8 0.184-1.208 0.184M763.16 771.048c-0.728 0-1.464-0.184-2.136-0.552l-192.368-106.88a4.41 4.41 0 0 1-1.712-5.984l60.008-108.008c0.568-1.016 1.52-1.776 2.632-2.088a4.556 4.556 0 0 1 3.352 0.376l35.264 19.584a4.42 4.42 0 0 1 1.712 5.992 4.466 4.466 0 0 1-5.992 1.712l-31.408-17.456-55.736 100.312 188.528 104.744a4.398 4.398 0 1 1-2.144 8.248M808.336 750.864c-0.728 0-1.464-0.184-2.136-0.552a4.42 4.42 0 0 1-1.712-5.992l38.656-69.56-148.448-82.456a4.416 4.416 0 0 1-1.712-5.992 4.428 4.428 0 0 1 5.992-1.712l152.272 84.6a4.42 4.42 0 0 1 1.712 5.992L812.184 748.6a4.386 4.386 0 0 1-3.848 2.264" fill="#474341" p-id="3663"></path><path d="M215.6 436.488c-0.728 0-1.464-0.184-2.136-0.552a4.42 4.42 0 0 1-1.712-5.992l47.752-85.92a4.432 4.432 0 0 1 5.984-1.712 4.42 4.42 0 0 1 1.712 5.992l-47.744 85.92a4.432 4.432 0 0 1-3.856 2.264M246.48 473.784c-0.728 0-1.464-0.184-2.136-0.552a4.42 4.42 0 0 1-1.712-5.992l47.736-85.92c1.184-2.128 3.888-2.864 5.992-1.712a4.416 4.416 0 0 1 1.712 5.992l-47.736 85.92a4.398 4.398 0 0 1-3.856 2.264M294.472 480.312c-0.728 0-1.464-0.184-2.136-0.552a4.42 4.42 0 0 1-1.712-5.992l47.752-85.928c1.184-2.136 3.872-2.864 5.984-1.712a4.416 4.416 0 0 1 1.712 5.992l-47.752 85.928a4.41 4.41 0 0 1-3.848 2.264M325.064 517.384a4.408 4.408 0 0 1-3.848-6.552l56.576-101.096a4.404 4.404 0 1 1 7.688 4.296l-56.576 101.096a4.39 4.39 0 0 1-3.84 2.256M373.344 524.128c-0.728 0-1.464-0.184-2.136-0.552a4.42 4.42 0 0 1-1.712-5.992l47.752-85.92c1.184-2.136 3.872-2.864 5.984-1.712a4.42 4.42 0 0 1 1.712 5.992l-47.744 85.92a4.432 4.432 0 0 1-3.856 2.264M607.04 662.36c-0.728 0-1.464-0.184-2.136-0.552a4.42 4.42 0 0 1-1.712-5.992l47.736-85.928c1.184-2.136 3.872-2.864 5.992-1.712a4.416 4.416 0 0 1 1.712 5.992l-47.736 85.928a4.414 4.414 0 0 1-3.856 2.264M642.208 691.96a4.408 4.408 0 0 1-3.848-6.552l54.656-97.728a4.396 4.396 0 0 1 5.984-1.696 4.408 4.408 0 0 1 1.696 5.992l-54.656 97.736a4.36 4.36 0 0 1-3.832 2.248M685.912 706.176c-0.728 0-1.464-0.184-2.136-0.552a4.42 4.42 0 0 1-1.712-5.992l47.736-85.92a4.428 4.428 0 0 1 5.992-1.712 4.416 4.416 0 0 1 1.712 5.992l-47.736 85.92a4.414 4.414 0 0 1-3.856 2.264M725.344 728.088c-0.728 0-1.464-0.184-2.136-0.552a4.42 4.42 0 0 1-1.712-5.992l47.752-85.928a4.414 4.414 0 0 1 5.984-1.712 4.416 4.416 0 0 1 1.712 5.992L729.2 725.824a4.414 4.414 0 0 1-3.856 2.264M764.784 750c-0.728 0-1.464-0.184-2.136-0.552a4.42 4.42 0 0 1-1.712-5.992l47.736-85.928c1.184-2.136 3.872-2.864 5.992-1.712a4.416 4.416 0 0 1 1.712 5.992l-47.736 85.928a4.414 4.414 0 0 1-3.856 2.264" fill="#474341" p-id="3664"></path></svg>